<svg xmlns="http://www.w3.org/2000/svg" viewBox="0 0 64 64" fill="none">
  <defs>
    <linearGradient id="ttf-bg-legacy" x1="10" y1="8" x2="56" y2="58" gradientUnits="userSpaceOnUse">
      <stop stop-color="#0C1013"/>
      <stop offset="1" stop-color="#1A2328"/>
    </linearGradient>
  </defs>
  <rect x="5" y="5" width="54" height="54" rx="16" fill="url(#ttf-bg-legacy)"/>
  <rect x="5" y="5" width="54" height="54" rx="16" stroke="#324046" stroke-width="2"/>
  <circle cx="32" cy="32" r="18" fill="#D4F53C" fill-opacity="0.11"/>
  <g transform="translate(10 10) scale(1.8333)">
    <path d="M12 2.65 19.4 6.95v10.1L12 21.35 4.6 17.05V6.95L12 2.65Z" fill="#D4F53C" fill-opacity="0.12" stroke="#D4F53C" stroke-width="1.55" stroke-linejoin="round"/>
    <path d="M12 5.35 16.95 8.2v5.6L12 16.65 7.05 13.8V8.2L12 5.35Z" fill="#D4F53C" fill-opacity="0.2" stroke="#F4F8D6" stroke-width="1.2" stroke-linejoin="round"/>
    <path d="M12 8.15l1 1.9 2.1.3-1.55 1.5.38 2.15L12 12.95 10.07 14l.38-2.15-1.55-1.5 2.1-.3L12 8.15Z" fill="#D4F53C"/>
    <path d="M7.65 7.95 12 10.45l4.35-2.5M7.65 14.05 12 11.55l4.35 2.5" stroke="#F4F8D6" stroke-opacity="0.6" stroke-width="1.2" stroke-linecap="round" stroke-linejoin="round"/>
  </g>
</svg>
