<svg xmlns="http://www.w3.org/2000/svg" viewBox="0 0 64 64" fill="none">
  <defs>
    <linearGradient id="bg" x1="8" y1="6" x2="56" y2="58" gradientUnits="userSpaceOnUse">
      <stop stop-color="#13171A"/>
      <stop offset="1" stop-color="#090B0D"/>
    </linearGradient>
    <linearGradient id="accent" x1="21" y1="11" x2="43" y2="51" gradientUnits="userSpaceOnUse">
      <stop stop-color="#D4F53C"/>
      <stop offset="1" stop-color="#7AA908"/>
    </linearGradient>
    <filter id="glow" x="10" y="7" width="44" height="50" color-interpolation-filters="sRGB">
      <feGaussianBlur stdDeviation="3" result="blur"/>
      <feMerge>
        <feMergeNode in="blur"/>
        <feMergeNode in="SourceGraphic"/>
      </feMerge>
    </filter>
  </defs>

  <rect x="4" y="4" width="56" height="56" rx="16" fill="url(#bg)"/>
  <rect x="8" y="8" width="48" height="48" rx="12" stroke="#D4F53C" stroke-opacity="0.18" stroke-width="1.5"/>
  <circle cx="45" cy="17" r="9" fill="#D4F53C" opacity="0.14"/>
  <path
    d="M24 44L20.5 45.8C19.9 46.1 19.5 46.7 19.5 47.4V51H44.5V47.4C44.5 46.7 44.1 46.1 43.5 45.8L40 44M24 44V25C24 20.6 27.6 17 32 17C36.4 17 40 20.6 40 25V44M26.5 25H37.5M32 13.5A2.5 2.5 0 1 0 32 18.5A2.5 2.5 0 1 0 32 13.5Z"
    stroke="url(#accent)"
    stroke-width="3"
    stroke-linecap="round"
    stroke-linejoin="round"
    filter="url(#glow)"
  />
</svg>
